{
	"asset":{
		"generator":"Khronos glTF Blender I/O v4.4.56",
		"version":"2.0"
	},
	"scene":0,
	"scenes":[
		{
			"name":"Scene",
			"nodes":[
				0
			]
		}
	],
	"nodes":[
		{
			"mesh":0,
			"name":"ModernBuilding",
			"scale":[
				4,
				6,
				4
			],
			"translation":[
				-12,
				3,
				10
			]
		}
	],
	"materials":[
		{
			"name":"Material_0.001",
			"normalTexture":{
				"index":0
			},
			"pbrMetallicRoughness":{
				"baseColorTexture":{
					"index":1
				},
				"metallicRoughnessTexture":{
					"index":2
				}
			}
		}
	],
	"meshes":[
		{
			"name":"ModernBuilding",
			"primitives":[
				{
					"attributes":{
						"POSITION":0,
						"NORMAL":1,
						"TEXCOORD_0":2
					},
					"indices":3,
					"material":0
				}
			]
		}
	],
	"textures":[
		{
			"sampler":0,
			"source":0
		},
		{
			"sampler":0,
			"source":1
		},
		{
			"sampler":0,
			"source":2
		}
	],
	"images":[
		{
			"mimeType":"image/png",
			"name":"Image_1",
			"uri":"Image_1.png"
		},
		{
			"mimeType":"image/png",
			"name":"Image_0",
			"uri":"Image_0.png"
		},
		{
			"mimeType":"image/png",
			"name":"Image_2",
			"uri":"Image_2.png"
		}
	],
	"accessors":[
		{
			"bufferView":0,
			"componentType":5126,
			"count":31636,
			"max":[
				0.8053590059280396,
				0.5392500162124634,
				0.9456419944763184
			],
			"min":[
				-0.8055509924888611,
				-0.5393800139427185,
				-0.9503200054168701
			],
			"type":"VEC3"
		},
		{
			"bufferView":1,
			"componentType":5126,
			"count":31636,
			"type":"VEC3"
		},
		{
			"bufferView":2,
			"componentType":5126,
			"count":31636,
			"type":"VEC2"
		},
		{
			"bufferView":3,
			"componentType":5123,
			"count":69546,
			"type":"SCALAR"
		}
	],
	"bufferViews":[
		{
			"buffer":0,
			"byteLength":379632,
			"byteOffset":0,
			"target":34962
		},
		{
			"buffer":0,
			"byteLength":379632,
			"byteOffset":379632,
			"target":34962
		},
		{
			"buffer":0,
			"byteLength":253088,
			"byteOffset":759264,
			"target":34962
		},
		{
			"buffer":0,
			"byteLength":139092,
			"byteOffset":1012352,
			"target":34963
		}
	],
	"samplers":[
		{
			"magFilter":9729,
			"minFilter":9987
		}
	],
	"buffers":[
		{
			"byteLength":1151444,
			"uri":"modern_building.bin"
		}
	]
}
