{
	"asset":{
		"generator":"Khronos glTF Blender I/O v4.4.56",
		"version":"2.0"
	},
	"scene":0,
	"scenes":[
		{
			"name":"Scene",
			"nodes":[
				0
			]
		}
	],
	"nodes":[
		{
			"mesh":0,
			"name":"FemalGameCharacter",
			"scale":[
				3,
				3,
				3
			],
			"translation":[
				0,
				1.5,
				15
			]
		}
	],
	"materials":[
		{
			"name":"Material_0",
			"normalTexture":{
				"index":0
			},
			"pbrMetallicRoughness":{
				"baseColorTexture":{
					"index":1
				},
				"metallicRoughnessTexture":{
					"index":2
				}
			}
		}
	],
	"meshes":[
		{
			"name":"FemalGameCharacter",
			"primitives":[
				{
					"attributes":{
						"POSITION":0,
						"NORMAL":1,
						"TEXCOORD_0":2
					},
					"indices":3,
					"material":0
				}
			]
		}
	],
	"textures":[
		{
			"sampler":0,
			"source":0
		},
		{
			"sampler":0,
			"source":1
		},
		{
			"sampler":0,
			"source":2
		}
	],
	"images":[
		{
			"mimeType":"image/png",
			"name":"Image_1",
			"uri":"Image_1.png"
		},
		{
			"mimeType":"image/png",
			"name":"Image_0",
			"uri":"Image_0.png"
		},
		{
			"mimeType":"image/png",
			"name":"Image_2",
			"uri":"Image_2.png"
		}
	],
	"accessors":[
		{
			"bufferView":0,
			"componentType":5126,
			"count":23830,
			"max":[
				0.47237300872802734,
				0.28105899691581726,
				0.1102219969034195
			],
			"min":[
				-0.4692479968070984,
				-0.2843030095100403,
				-0.9429450035095215
			],
			"type":"VEC3"
		},
		{
			"bufferView":1,
			"componentType":5126,
			"count":23830,
			"type":"VEC3"
		},
		{
			"bufferView":2,
			"componentType":5126,
			"count":23830,
			"type":"VEC2"
		},
		{
			"bufferView":3,
			"componentType":5123,
			"count":69990,
			"type":"SCALAR"
		}
	],
	"bufferViews":[
		{
			"buffer":0,
			"byteLength":285960,
			"byteOffset":0,
			"target":34962
		},
		{
			"buffer":0,
			"byteLength":285960,
			"byteOffset":285960,
			"target":34962
		},
		{
			"buffer":0,
			"byteLength":190640,
			"byteOffset":571920,
			"target":34962
		},
		{
			"buffer":0,
			"byteLength":139980,
			"byteOffset":762560,
			"target":34963
		}
	],
	"samplers":[
		{
			"magFilter":9729,
			"minFilter":9987
		}
	],
	"buffers":[
		{
			"byteLength":902540,
			"uri":"female_character.bin"
		}
	]
}
