{
	"asset":{
		"generator":"Khronos glTF Blender I/O v4.4.56",
		"version":"2.0"
	},
	"scene":0,
	"scenes":[
		{
			"name":"Scene",
			"nodes":[
				0
			]
		}
	],
	"nodes":[
		{
			"mesh":0,
			"name":"StreetObstacle",
			"scale":[
				1.5,
				1.5,
				1.5
			],
			"translation":[
				2,
				0.800000011920929,
				5
			]
		}
	],
	"materials":[
		{
			"name":"Material_0.002",
			"normalTexture":{
				"index":0
			},
			"pbrMetallicRoughness":{
				"baseColorTexture":{
					"index":1
				},
				"metallicRoughnessTexture":{
					"index":2
				}
			}
		}
	],
	"meshes":[
		{
			"name":"StreetObstacle",
			"primitives":[
				{
					"attributes":{
						"POSITION":0,
						"NORMAL":1,
						"TEXCOORD_0":2
					},
					"indices":3,
					"material":0
				}
			]
		}
	],
	"textures":[
		{
			"sampler":0,
			"source":0
		},
		{
			"sampler":0,
			"source":1
		},
		{
			"sampler":0,
			"source":2
		}
	],
	"images":[
		{
			"mimeType":"image/png",
			"name":"Image_1",
			"uri":"Image_1.png"
		},
		{
			"mimeType":"image/png",
			"name":"Image_0",
			"uri":"Image_0.png"
		},
		{
			"mimeType":"image/png",
			"name":"Image_2",
			"uri":"Image_2.png"
		}
	],
	"accessors":[
		{
			"bufferView":0,
			"componentType":5126,
			"count":25304,
			"max":[
				0.6233620047569275,
				0.3875750005245209,
				0.9444490075111389
			],
			"min":[
				-0.6226239800453186,
				-0.38713398575782776,
				-0.9466500282287598
			],
			"type":"VEC3"
		},
		{
			"bufferView":1,
			"componentType":5126,
			"count":25304,
			"type":"VEC3"
		},
		{
			"bufferView":2,
			"componentType":5126,
			"count":25304,
			"type":"VEC2"
		},
		{
			"bufferView":3,
			"componentType":5123,
			"count":69951,
			"type":"SCALAR"
		}
	],
	"bufferViews":[
		{
			"buffer":0,
			"byteLength":303648,
			"byteOffset":0,
			"target":34962
		},
		{
			"buffer":0,
			"byteLength":303648,
			"byteOffset":303648,
			"target":34962
		},
		{
			"buffer":0,
			"byteLength":202432,
			"byteOffset":607296,
			"target":34962
		},
		{
			"buffer":0,
			"byteLength":139902,
			"byteOffset":809728,
			"target":34963
		}
	],
	"samplers":[
		{
			"magFilter":9729,
			"minFilter":9987
		}
	],
	"buffers":[
		{
			"byteLength":949632,
			"uri":"street_obstacle.bin"
		}
	]
}
